<?xml version="1.0" standalone="no"?>
<!DOCTYPE svg PUBLIC "-//W3C//DTD SVG 20010904//EN"
 "http://www.w3.org/TR/2001/REC-SVG-20010904/DTD/svg10.dtd">
<svg version="1.0" xmlns="http://www.w3.org/2000/svg"
 width="512.000000pt" height="408.000000pt" viewBox="0 0 512.000000 408.000000"
 preserveAspectRatio="xMidYMid meet">

<g transform="translate(0.000000,408.000000) scale(0.100000,-0.100000)"
fill="#000000" stroke="none">
<path d="M0 2040 l0 -2040 2560 0 2560 0 0 2040 0 2040 -2560 0 -2560 0 0
-2040z m2368 1836 c31 -13 199 -81 372 -151 173 -70 365 -148 425 -172 61 -25
186 -76 280 -114 93 -38 173 -75 177 -82 16 -25 8 -73 -14 -94 -24 -21 -227
-116 -828 -386 -190 -85 -385 -174 -435 -197 -129 -61 -144 -60 -350 27 -93
39 -249 102 -345 138 -224 86 -622 235 -627 235 -1 0 -3 -104 -3 -231 l0 -231
25 -20 c49 -38 54 -130 9 -179 -15 -17 -14 -36 6 -234 17 -168 19 -219 9 -231
-17 -21 -221 -20 -239 1 -10 12 -8 58 10 229 l22 215 -21 27 c-38 48 -24 146
25 179 22 14 23 17 24 242 0 125 3 237 6 249 7 25 -15 39 -102 68 -91 30 -112
85 -44 118 19 10 208 88 420 174 688 279 793 322 940 383 80 33 158 60 173 61
15 0 53 -11 85 -24z m1895 -200 c163 -59 213 -270 94 -394 -18 -19 -49 -42
-69 -53 l-38 -19 0 -163 c0 -220 -8 -247 -106 -348 l-75 -76 59 -61 c64 -65
111 -147 119 -210 5 -39 6 -40 57 -46 28 -3 88 -6 133 -6 79 0 82 1 130 38 26
21 65 57 86 80 l37 42 0 165 c0 132 -3 165 -13 165 -27 0 -97 60 -117 101 -63
122 -16 269 103 325 92 42 175 27 249 -47 93 -93 100 -224 17 -314 -22 -24
-52 -48 -68 -55 l-29 -12 -4 -176 c-5 -220 -10 -233 -122 -339 -114 -107 -129
-113 -308 -113 -121 0 -148 -3 -148 -14 0 -8 29 -43 65 -77 44 -42 76 -85 98
-128 30 -62 32 -72 32 -176 0 -127 -16 -185 -71 -261 -32 -44 -35 -53 -29 -96
8 -68 -12 -208 -41 -286 -47 -127 -178 -270 -309 -336 -65 -32 -89 -33 -120
-1 -46 45 -24 91 72 145 76 43 163 132 196 200 27 55 47 137 47 190 l0 28 -85
-5 c-104 -7 -164 8 -211 52 -47 45 -46 88 3 114 18 9 35 8 83 -6 82 -22 175
-8 229 35 76 62 112 204 76 311 -19 59 -93 146 -150 176 -44 24 -51 49 -35
126 26 120 -11 252 -87 320 -54 47 -134 80 -221 91 -42 6 -84 17 -93 25 -12
10 -18 35 -21 86 -5 115 -53 164 -168 174 -70 7 -148 -11 -195 -43 l-36 -24 3
92 3 92 60 19 c89 27 220 20 297 -17 81 -38 154 -121 175 -197 17 -60 20 -63
83 -74 35 -6 39 -3 121 82 55 57 88 100 92 119 3 16 3 94 0 172 -6 143 -6 144
-32 154 -157 59 -192 300 -61 411 21 17 53 37 71 43 45 17 125 16 172 0z
m-1144 -1141 c1 -123 -1 -144 -19 -172 -22 -36 -20 -36 -180 -63 -235 -39
-453 -141 -607 -284 l-62 -57 -78 63 c-195 159 -396 243 -646 273 -65 7 -124
19 -132 25 -32 27 -38 79 -30 274 4 105 8 192 9 193 4 5 237 -87 491 -193
l260 -109 85 0 85 0 315 146 c173 81 356 164 405 186 l90 40 6 -91 c4 -50 7
-154 8 -231z m373 -32 c12 -14 17 -49 20 -145 4 -117 6 -129 28 -153 29 -31
77 -33 113 -5 55 43 137 14 137 -49 0 -21 -11 -38 -39 -64 -50 -45 -98 -60
-177 -55 -82 5 -136 41 -176 117 -27 51 -28 59 -28 194 0 117 3 144 17 159 21
24 84 24 105 1z m-319 -400 c13 -15 16 -66 20 -338 4 -284 6 -329 25 -396 39
-143 111 -257 186 -296 17 -9 66 -20 111 -25 90 -9 128 -30 133 -71 8 -69 -55
-96 -181 -78 -225 31 -372 223 -418 541 -8 58 -10 170 -6 363 5 246 7 281 23
298 22 25 85 26 107 2z m-1773 -308 c0 -284 1 -305 18 -305 35 0 251 -79 363
-133 242 -116 476 -307 598 -490 28 -42 55 -77 59 -77 4 1 30 33 57 72 67 96
192 226 273 286 65 48 123 82 139 82 4 0 19 -28 32 -62 l24 -61 -20 -16 c-11
-9 -49 -36 -83 -61 -106 -76 -234 -231 -356 -431 -37 -60 -70 -106 -74 -102
-3 4 -38 62 -77 128 -178 301 -376 480 -681 614 -199 88 -520 178 -767 216
-55 8 -112 17 -127 20 l-28 5 0 -323 0 -323 228 4 c175 3 259 1 362 -12 444
-56 774 -197 1002 -428 47 -49 91 -88 98 -88 6 0 34 25 62 55 160 175 389 306
657 377 l114 30 61 -28 c33 -15 98 -40 144 -54 l83 -27 -63 -7 c-98 -11 -280
-54 -391 -93 -103 -35 -227 -91 -227 -102 0 -3 285 -6 632 -6 l633 0 7 35 c4
19 7 70 7 113 1 52 5 77 13 77 6 0 40 -5 75 -11 l63 -11 0 -162 c0 -124 -3
-167 -14 -182 -14 -19 -35 -19 -828 -21 l-813 -2 -32 -41 c-57 -73 -131 -120
-194 -120 -35 0 -122 55 -169 107 l-49 56 -797 3 c-579 3 -800 7 -810 15 -17
14 -19 124 -4 134 6 4 326 6 710 6 385 0 700 3 700 7 0 30 -340 156 -515 191
-195 39 -453 51 -655 31 -52 -6 -130 -13 -172 -16 l-78 -7 0 479 c0 263 4 485
9 493 12 18 138 11 311 -19 106 -18 166 -30 318 -65 l22 -5 0 280 0 280 75 0
75 0 0 -305z m2279 -19 c39 -42 26 -81 -43 -136 -70 -54 -102 -109 -111 -195
-8 -68 -26 -95 -65 -95 -31 0 -53 21 -69 69 -31 92 3 197 93 286 94 94 153
115 195 71z"/>
<path d="M4104 3526 c-36 -36 -44 -78 -24 -130 11 -30 65 -66 98 -66 100 0
149 134 72 203 -45 40 -101 38 -146 -7z"/>
<path d="M4711 3096 c-86 -48 -54 -186 44 -186 27 0 44 8 66 29 80 80 -12 211
-110 157z"/>
</g>
</svg>
